<mxfile host="app.diagrams.net" modified="2023-12-12T09:24:21.456Z" agent="Mozilla/5.0 (Windows NT 10.0; Win64; x64) AppleWebKit/537.36 (KHTML, like Gecko) Chrome/120.0.0.0 Safari/537.36 Edg/120.0.0.0" etag="fS5bcN9A0IxIRXV3coEI" version="22.1.7" type="github">
  <diagram name="Page-1" id="h-0BGvDzfm_1H46u-eBx">
    <mxGraphModel dx="24720" dy="12460" grid="0" gridSize="10" guides="1" tooltips="1" connect="1" arrows="1" fold="1" page="0" pageScale="1" pageWidth="850" pageHeight="1100" math="0" shadow="0">
      <root>
        <mxCell id="0" />
        <mxCell id="1" parent="0" />
      </root>
    </mxGraphModel>
  </diagram>
</mxfile>
